<?xml version="1.0" standalone="no"?>
<!DOCTYPE svg PUBLIC "-//W3C//DTD SVG 20010904//EN"
 "http://www.w3.org/TR/2001/REC-SVG-20010904/DTD/svg10.dtd">
<svg version="1.0" xmlns="http://www.w3.org/2000/svg"
 width="624.000000pt" height="624.000000pt" viewBox="0 0 624.000000 624.000000"
 preserveAspectRatio="xMidYMid meet">
<metadata>
Created by potrace 1.14, written by Peter Selinger 2001-2017
</metadata>
<g transform="translate(0.000000,624.000000) scale(0.100000,-0.100000)"
fill="#000000" stroke="none">
<path d="M2970 6100 c-36 -9 -78 -23 -95 -31 -49 -21 -137 -81 -180 -121 -37
-36 -44 -38 -102 -38 -76 0 -74 0 -94 -11 -9 -4 -30 -11 -48 -14 -103 -18
-253 -127 -332 -242 -25 -35 -92 -172 -90 -180 5 -17 -1 -43 -10 -43 -27 0
-145 -65 -199 -110 -57 -48 -131 -142 -162 -206 -13 -27 -29 -85 -56 -198 -6
-22 -21 -38 -57 -59 -68 -39 -173 -150 -213 -224 -18 -34 -41 -96 -52 -137
-20 -77 -28 -194 -16 -214 4 -7 -7 -19 -31 -29 -21 -10 -40 -21 -43 -24 -3 -3
-20 -14 -38 -23 -87 -45 -208 -199 -246 -312 -26 -80 -28 -93 -31 -198 l-2
-99 -63 -35 c-59 -33 -170 -132 -197 -177 -67 -108 -103 -214 -107 -316 -4
-85 3 -74 -89 -149 -21 -17 -85 -102 -106 -140 -34 -62 -41 -79 -57 -135 -17
-63 -26 -236 -14 -270 6 -15 -4 -32 -41 -73 -102 -111 -150 -233 -154 -391 -3
-119 16 -206 65 -299 16 -30 26 -64 24 -76 -21 -96 -25 -130 -23 -196 2 -85
51 -270 71 -270 5 0 8 -7 8 -15 0 -8 5 -15 10 -15 6 0 10 -5 10 -11 0 -22 92
-120 153 -162 76 -53 96 -63 172 -86 55 -17 63 -23 105 -84 101 -146 239 -237
400 -263 56 -9 165 -10 205 -1 98 20 98 20 140 -14 53 -42 166 -94 239 -109
71 -15 208 -15 256 0 19 5 36 10 38 10 1 0 9 -18 18 -39 19 -48 68 -94 118
-111 28 -9 269 -12 1026 -12 544 0 993 3 999 7 6 3 11 4 11 0 0 -3 18 4 40 15
47 24 97 88 106 135 l6 33 52 -19 c102 -35 231 -42 334 -15 31 8 64 16 72 18
8 1 17 5 20 8 3 3 30 17 60 32 30 16 67 39 83 53 23 22 33 25 69 20 24 -4 47
-9 52 -12 18 -11 161 -9 227 3 114 21 231 85 319 172 14 14 45 55 70 90 36 52
53 68 80 74 100 24 220 98 295 181 30 33 55 66 55 72 0 7 6 18 14 24 15 12 60
118 72 168 14 57 11 265 -4 296 -13 26 -12 33 21 105 49 108 60 153 62 267 2
70 -3 118 -15 160 -19 67 -64 168 -89 198 -49 61 -77 93 -87 99 -7 5 -8 24 -3
55 7 49 5 168 -5 212 -29 132 -114 267 -220 350 -38 30 -39 33 -41 99 -5 147
-64 286 -168 393 -70 72 -84 83 -152 120 l-49 27 2 84 c1 125 -48 283 -115
370 -48 62 -147 147 -207 177 l-65 32 0 67 c0 120 -14 178 -69 292 -43 87
-160 212 -229 245 -38 18 -43 24 -48 65 -6 38 -13 68 -29 125 -2 6 -4 13 -5
17 -7 38 -103 177 -153 224 -49 45 -155 112 -200 126 -23 7 -38 17 -38 27 0
28 -38 122 -72 178 -82 136 -225 240 -383 279 -44 11 -45 11 -110 13 -56 1
-63 5 -110 47 -64 58 -149 108 -228 135 -86 29 -247 33 -337 9z m247 -403 c31
-17 70 -58 114 -124 48 -71 104 -86 264 -68 68 8 109 -5 161 -48 47 -40 66
-90 69 -177 3 -90 27 -146 77 -183 44 -32 63 -39 127 -44 84 -6 153 -49 187
-115 16 -30 18 -68 14 -200 -3 -101 62 -176 171 -199 117 -25 188 -116 180
-229 -1 -19 -18 -65 -37 -102 -43 -85 -46 -141 -13 -207 36 -74 107 -110 211
-109 130 2 218 -80 224 -207 2 -50 -15 -103 -45 -139 -24 -29 -39 -106 -29
-151 22 -100 97 -156 212 -161 82 -3 120 -17 164 -58 57 -53 80 -128 61 -201
-23 -88 -25 -123 -12 -168 17 -60 68 -109 140 -135 133 -49 184 -175 123 -307
-56 -123 -22 -225 100 -291 136 -74 157 -235 45 -352 -64 -67 -77 -161 -33
-244 12 -24 22 -46 23 -50 0 -3 3 -10 8 -14 14 -14 6 -109 -12 -149 -38 -81
-105 -122 -208 -126 -32 -1 -64 -7 -72 -13 -8 -6 -17 -10 -20 -9 -14 3 -58
-31 -77 -60 -11 -18 -28 -57 -38 -87 -45 -141 -190 -195 -323 -119 -73 42
-123 51 -182 33 -51 -15 -82 -39 -126 -99 -36 -49 -50 -61 -95 -81 -73 -32
-161 -17 -225 40 -16 14 -46 33 -65 42 -38 18 -52 33 -43 47 5 8 7 129 3 152
-1 6 -2 14 -1 18 2 14 3 212 1 222 -1 6 -2 13 -1 17 2 15 3 133 1 143 -1 6 -1
15 0 20 1 6 1 55 0 110 -1 55 -1 107 -1 115 1 8 1 62 0 120 0 58 0 112 0 120
2 46 2 316 0 320 -1 3 -1 8 0 12 2 15 3 133 1 143 -1 6 -2 13 -1 17 2 15 3
133 1 143 -1 6 -2 14 -1 19 4 23 2 96 -4 136 -13 83 -62 147 -144 183 -44 19
-64 20 -1006 18 -528 -1 -968 -2 -977 -2 -10 0 -20 -4 -23 -10 -4 -5 -13 -9
-21 -9 -16 0 -30 -10 -75 -53 -40 -38 -58 -76 -65 -139 -6 -54 -6 -57 -4 -93
0 -11 1 -32 1 -47 -1 -16 -1 -34 -1 -40 1 -7 -1 -46 -2 -86 -2 -39 1 -72 5
-72 5 0 5 -4 2 -10 -8 -13 -11 -108 -3 -116 4 -3 3 -16 -1 -28 -4 -11 -5 -34
-1 -51 3 -16 3 -45 -1 -62 -4 -18 -3 -33 1 -33 5 0 5 -13 0 -30 -5 -17 -5 -32
0 -35 5 -3 6 -15 1 -27 -4 -12 -5 -36 -1 -53 4 -17 4 -39 0 -50 -4 -11 -4 -27
1 -36 4 -8 4 -21 -1 -29 -4 -7 -4 -23 0 -36 5 -12 6 -25 3 -28 -8 -8 -8 -74 0
-82 3 -3 2 -16 -3 -28 -4 -13 -4 -29 0 -36 5 -8 5 -21 0 -29 -4 -8 -4 -25 0
-37 5 -12 6 -25 3 -28 -8 -8 -8 -74 0 -82 3 -3 2 -16 -3 -28 -4 -13 -4 -29 0
-36 5 -8 5 -21 0 -29 -4 -8 -4 -25 0 -37 5 -12 6 -24 3 -27 -7 -7 -7 -216 0
-223 3 -3 2 -17 -2 -32 -4 -15 -4 -39 0 -54 4 -16 4 -28 -1 -28 -4 0 -4 -16 0
-35 4 -19 4 -35 -1 -35 -4 0 -6 -7 -2 -16 6 -16 -13 -38 -59 -68 -51 -33 -135
-38 -193 -10 -32 15 -92 74 -125 122 -8 13 -35 32 -60 44 -66 32 -125 27 -203
-17 -96 -53 -173 -54 -253 -2 -31 21 -84 102 -84 129 0 24 -27 72 -57 100 -39
37 -93 58 -152 58 -52 0 -122 25 -157 56 -12 11 -31 39 -44 64 -29 57 -23 143
14 211 51 90 38 178 -38 262 -65 72 -82 156 -47 232 23 53 55 85 111 114 63
34 99 79 112 145 11 51 10 59 -17 128 -33 84 -39 146 -18 197 19 46 67 96 107
112 97 36 139 69 163 127 19 45 19 116 0 162 -18 45 -14 132 8 168 53 83 103
111 211 116 41 2 85 11 105 21 68 36 111 104 111 179 -1 40 -9 62 -57 156 -60
116 8 266 135 297 8 2 47 5 85 7 104 5 148 28 191 101 37 64 35 128 -6 202
-26 45 -33 72 -36 122 -1 36 0 70 4 75 6 10 8 14 11 34 3 21 111 115 111 97 0
-3 6 -3 13 2 6 4 17 8 22 10 71 15 96 27 129 59 40 40 59 90 56 149 -5 129 -3
161 15 194 33 64 100 106 185 114 67 6 85 13 129 45 46 34 73 100 76 187 3 82
12 110 55 158 44 50 104 71 177 62 109 -13 165 -9 205 14 36 22 88 80 88 100
0 16 82 81 115 91 41 13 125 6 162 -13z"/>
</g>
</svg>
